<svg width="32" height="32" viewBox="0 0 32 32" fill="none" xmlns="http://www.w3.org/2000/svg">
<path d="M0 15.9995C0 24.8361 7.16344 31.9995 16 31.9995C24.8366 31.9995 32 24.8361 32 15.9995C32 7.16296 24.8366 -0.000488281 16 -0.000488281C7.16344 -0.000488281 0 7.16296 0 15.9995Z" fill="#211E1E"/>
<path d="M17.7033 22.4183C16.9305 22.9965 15.7251 23.3362 14.6895 23.3362C12.7426 23.3362 11.2744 22.1631 11.2744 19.8857V15.9247H9.75964V13.5619H11.2744V11.3689H14.319V13.5619H17.6108V15.9247H14.319V19.3247C14.319 20.1748 14.8906 20.6676 15.7099 20.6676C16.2199 20.6676 16.699 20.4806 17.1933 20.2253L17.7033 22.4183Z" fill="white"/>
<path d="M26.7765 22.4183C26.0037 22.9965 24.7983 23.3362 23.7627 23.3362C21.8159 23.3362 20.3476 22.1631 20.3476 19.8857V15.9247H18.8329V13.5619H20.3476V11.3689H23.3923V13.5619H26.684V15.9247H23.3923V19.3247C23.3923 20.1748 23.9639 20.6676 24.7832 20.6676C25.2931 20.6676 25.7723 20.4806 26.2666 20.2253L26.7765 22.4183Z" fill="white"/>
<path d="M5.46155 13.512H8.51579V22.8031H5.46155V13.512Z" fill="white"/>
<path d="M6.98832 12.1937C7.96334 12.1937 8.75375 11.4033 8.75375 10.4283C8.75375 9.45325 7.96334 8.66284 6.98832 8.66284C6.01331 8.66284 5.2229 9.45325 5.2229 10.4283C5.2229 11.4033 6.01331 12.1937 6.98832 12.1937Z" fill="#F06023"/>
</svg>
